<svg version="1.2" baseProfile="tiny-ps" xmlns="http://www.w3.org/2000/svg" viewBox="0 0 750 750" width="500" height="500">
	<title>Кутийка-pdf</title>
	<defs>
		<clipPath clipPathUnits="userSpaceOnUse" id="cp1">
			<path d="M0 0L750 0L750 750L0 750Z" />
		</clipPath>
	</defs>
	<style>
		tspan { white-space:pre }
		.shp0 { fill: #b5e8e5 } 
	</style>
	<g id="Page 1" clip-path="url(#cp1)">
		<path id="Path 3" fill-rule="evenodd" class="shp0" d="M736.98 422.07C736.03 436.29 732.67 450.3 729.72 464.35C729 467.56 728.6 470.69 727.67 473.68C722.24 491.57 722.47 491.79 714.87 506.48L711.67 511.72C709.33 515.61 706.61 521.13 705.54 524.13C704.32 527.56 704.38 528.61 705.38 527.95C706.9 526.94 710.58 520.68 713.1 517.24C714.84 514.86 715.48 515.16 714.43 518.14C713.32 521.3 712.36 524.25 710.85 527.98C707.49 537.17 702.86 545.74 698.26 554.44C693.79 563.24 689.11 572.03 683.35 580.26C679.27 586.33 674.81 593.31 669.48 600C648.54 625.06 626.61 647.14 600.53 666.06C595.29 670.39 589.68 673.39 584.99 675.5C579.8 677.78 575.27 679.77 570 682.09C562.99 685.74 551.48 690.34 543.82 694.66C537.18 698.18 531.31 702 525.13 704.55C520.2 706.83 519.94 707.88 523.79 707.05C526.97 706.33 532.47 704.72 537.43 702C545.17 698.15 550.95 694.57 559.94 690.51C561.99 689.69 564.68 688.6 565.6 688.22C566.54 687.93 566.32 688.46 565.6 689.15C564.88 689.93 562.95 690.97 561.21 691.98C559.43 692.96 557.42 694.05 555.31 695.2L535.74 705.19C529.17 708.42 522.2 710.76 515.42 713.56C501.91 719.44 487.73 723.28 473.52 727.19C464.16 730.23 454.06 731.51 445.17 733.36C414.72 739.95 381.74 740.89 346.46 737.72C332.6 735.43 319.26 734.87 306.37 731.84C292.81 728.62 278.41 726.04 264.73 720.67L243.93 713.32C237.24 710.28 230.58 707.25 223.99 704.25C215.95 700.62 207.85 696.92 200.48 692.31C163.5 672.02 129.08 645.41 99.88 610.12C86.7 593.56 73.95 577.24 63.57 559.37C56.72 549.08 51.98 538.64 48.17 528.14C47.36 526.07 46.45 523.73 45.55 521.41C40.54 510.09 38.39 500.32 34.33 494.95C32.1 491.25 28.31 485.12 25.49 473.05C22.65 459.75 17.77 449.68 16.69 435.53C15.77 424.17 16.61 419.92 16.63 412.22C16.38 406.05 16.86 398.57 16.93 389.4C16.98 381.18 16.74 373.06 15.96 367.02C15.51 358.71 15.12 351.39 14.71 343.79C14.69 343.3 14.43 343.86 14.28 344.54C14.14 345.23 13.89 346.95 13.87 347.74C13.55 357.66 12.96 367.57 13.98 377.47C14.49 385.51 14.21 394.73 13.43 396.39C12.57 398.19 11.4 394 11.02 387.11C8.38 352.86 12.42 317.98 21.27 283.88C23.03 278.12 25.22 274.32 24.79 277.81C24.43 280.8 24.16 283.67 23.38 287.68C21.42 300.32 20.62 313.18 19.31 325.9C18.8 338.69 19.19 351.55 19.21 364.32C19.54 371.77 20.61 379.49 21.12 387.9C21.64 401.49 24.05 413.72 26.55 425.73C28.52 437.83 32.09 449.37 35.8 461.69C39.28 474.88 43.49 482.85 46.01 485.08C46.23 485.27 46.45 485.52 46.72 485.87C51.26 491.81 56.42 506.13 65.76 525.43C68.45 531.19 70.5 537.32 73.78 542.79C78.94 552.29 84.02 560.52 89.11 567.99L103.54 585.68C107.11 589.78 110.08 593.82 114.19 598.09C134.26 620.34 152.5 636.01 175.36 651.73C180.98 655.63 185.78 658.78 191.21 662.18L220.9 678.23C231.22 682.59 241.52 686.95 251.75 691.27C265.96 695.32 279.3 700.53 293.5 703.1C294.48 703.3 295.67 703.51 295.97 703.48C296.96 703.35 298.95 703.42 297.92 702.81C296.92 702.23 292.84 700.82 289.81 699.9C286.46 699.04 282.85 697.74 279.49 696.55C274.99 694.97 270.68 693.47 266.13 691.89C227.93 676.69 194.97 658.69 164.02 632.97C159.65 629.03 155.18 625.28 151.29 622.12C145.11 617.4 138.92 611.72 133.18 605.37C127.4 599.11 121.01 593.13 115.78 586.66C113.08 583.33 109.94 579.03 107.03 575.05C105.7 573.23 104.22 570.95 103.13 569.19C99.27 563.19 98.46 558.75 100.74 560.43C101.4 560.98 104.95 565.15 106.3 567.39C111.08 575.13 115.81 581.97 120.52 588.18C125.76 593.95 130.95 599.14 136.14 604.07C139.61 607.21 143.21 611.44 147.64 614.97C157.19 623.25 162.36 626.6 165.96 628.04C168.65 629.25 171.87 630.7 175.93 632.54C180.58 634.72 186.99 638.59 195.96 645.07C198.36 647.02 203.09 650.38 202.91 650.6C202.74 650.81 202.36 650.96 201.13 650.39C198.97 649.53 196.34 647.65 193.96 646.13C192.37 645.13 190.68 644.06 189.28 643.17C185.37 640.83 184.39 640.92 185.27 642.54C186.39 644.41 194.63 651.88 198.76 653.64C206.27 656.98 214.59 660.96 223.11 665.1C231.71 669.08 241.1 672.12 249.73 675.46C255.98 677.95 262.04 679.48 268.63 681.07C275.28 682.8 281.25 684.2 284.46 684.28C287.8 684.59 294.92 685.99 303.74 687.87C313.14 689.84 322.32 692.33 331.06 692.72C343.78 693.71 354.43 694.86 359.62 693.08C363.76 691.88 370.91 691.1 381.52 690.92C390.13 691.21 399.14 689.64 410.34 689.81C420.18 690.13 428.43 688.9 435.36 686.92C438.3 686.13 442.44 685.17 446.52 684.56C461.19 682.47 469.97 677.99 479.04 674.98C486.3 672.58 490.92 670.27 498.91 668.58C500.68 668.16 502.39 667.76 504.25 667.31C509.44 665.91 514.98 664.35 519.58 661.59C523.08 659.61 526.26 657.82 529.35 656.07C532.72 654.11 531.98 653.54 528.25 654.97C525.38 656.09 522.34 657.27 519.57 658.35C511.61 661.77 502.71 663.28 494.08 666.25C485.45 669.34 476.17 671.31 466.5 673.83C465.47 674.06 464.31 674.33 463.21 674.58C458.81 675.62 453.91 676.33 452.94 676.05C451.74 675.63 452.77 674.96 456.21 673.71C459.41 672.6 463.06 671.36 467.01 670.31C471.73 669.09 476.5 667.87 481.3 666.64C486.03 665.19 490.63 663.28 495.31 661.63C510.11 656.99 523.86 649.85 537.86 643.24C545.52 638.81 553.31 634.3 554.57 633.58C563 628.67 565.07 627.74 566.83 626.33C577.76 618.2 589.38 611.48 598.13 604.58C603.98 600.46 609.52 596.71 614.25 593.79C618.82 590.72 622.29 588.19 624.78 587.32C627.38 586.35 627.98 587.61 629.5 587.85C630.51 588.01 634.8 584.62 639.55 579.91C641.12 578.26 642.88 576.77 644.3 574.99L653.02 563.97C657.18 558.28 662.08 553.08 665.64 546.97C673.21 534.76 681.28 523.17 687.33 510.58C694.37 498.48 699.6 485.72 704.9 472.93C711.66 456.26 715.75 442.88 720.34 434.33C722.61 428.5 724.95 421.2 727.35 413.52C730.71 404.21 731.97 392.99 732.62 378.35C732.72 377.18 732.84 375.62 732.92 374.75C733.35 371.91 733.83 368.03 734.23 366.95C734.63 365.89 735.02 367.23 735.3 368.54C735.48 369.38 735.5 371.86 735.5 373.97C735.46 387.61 736.04 396.84 737.58 400.58C738.8 403.36 737.97 412.02 736.98 422.07ZM671.6 560.2C676.59 552.99 679.11 547.21 680.84 543.07C681.04 542.55 680.76 542.69 680.71 542.52C680.21 543.11 679.66 543.63 679.23 544.3C673.94 553.01 669.86 559.73 666.6 565.1C666.12 565.94 666.75 565.8 667.59 564.98C668.51 564.08 670.42 561.8 671.6 560.2ZM628.34 619.36C627.72 619.85 626.64 620.71 625.82 621.37C622.68 624.18 621.21 625.86 620.78 626.81C620.33 627.81 622 626.94 624.64 624.81C625.46 624.1 626.49 623.2 627.29 622.51C631.71 618.36 632.28 616.6 628.34 619.36ZM579.68 658.45C576.87 659.94 573.32 661.89 570.84 663.46C563.98 667.7 558 672.14 553.68 675.03C551.96 676.17 551.39 676.9 550.71 677.46C550.59 678.28 555.13 677.47 559.91 674.91C565 672.25 570.73 668.65 573.35 666.37C576.57 663.46 579.55 660.76 582.54 658.06C583.77 656.94 582.34 657.04 579.68 658.45ZM515.03 694.19C514.71 694.19 514.59 694.08 514.03 694.24C513.49 694.44 512.48 694.82 511.69 695.13C512 695.12 512.12 695.23 512.69 695.08C513.21 694.88 514.23 694.49 515.03 694.19ZM486.44 704.02C486.12 703.99 486.01 703.87 485.43 703.97C484.88 704.12 483.84 704.4 483.02 704.62C483.33 704.65 483.44 704.78 484.02 704.67C484.56 704.53 485.61 704.25 486.44 704.02ZM460.3 711.46C458.39 711.76 456.63 712.23 454.81 712.63C453.97 713.09 455.06 713.23 457.96 712.83C459.86 712.65 462.22 711.86 463.2 711.41C464.65 710.76 463.15 710.79 460.3 711.46ZM444.94 707.64C445 706.95 438.75 707.15 432.87 707.88C430.5 708.21 427.8 708.59 425.82 708.86C411.02 710.44 402.31 711.96 396.46 713.91C395.83 714.11 397.3 714.48 398.88 714.56C401.71 714.71 405.61 714.84 408.65 714.7C422.57 714.47 433.52 712.09 441.75 709.64C444.36 708.91 444.89 708.19 444.94 707.64ZM417.27 718.4C414.7 718.2 411.54 717.97 408.35 718.02C403.61 718.09 398.31 718.29 393.76 718.59C371.41 718.91 349.02 717.86 327.07 714.2C310.41 712.07 296.3 708.01 282.71 705.66C279.98 704.87 277.21 704.18 275.97 704.09C274.81 704.01 275.01 704.59 275.88 705.32C276.37 705.72 279.29 707.09 281.34 707.91C296.91 712.43 312.87 717.41 326.11 719.95C336.42 721.86 343.87 722.97 350.24 723.54C359.71 723.85 369.81 724.17 381.3 724.54C386.38 724.83 390.77 724.65 392.04 723.92C395.62 722.22 404.59 720.87 415.96 719.59C419.05 719.24 419.72 718.58 417.27 718.4ZM120.31 625.86C120.07 625.02 116.15 620.28 114.18 618.46C112.44 616.85 111.45 616.32 110.11 615.3C110.81 616.44 111.22 617.33 112.29 618.8C113.98 621.11 117.73 625.22 118.95 626.02C120.02 626.73 120.52 626.65 120.31 625.86ZM22.34 445.61C21.97 443.97 21.26 440 21.1 439.06C20.54 437.05 19.98 435.72 19.57 435.4C19.39 435.25 19.45 438.01 19.65 439.85C19.76 441.77 20.55 444.64 21.07 446.09C21.59 447.63 21.97 448.01 22.42 448.9C22.41 447.85 22.61 447.29 22.34 445.61ZM711.95 488.86C711.72 488.1 709.81 490.99 708.3 494.52C707.36 496.62 706.61 498.84 705.23 501.45C700.4 510.9 696.16 519.73 692.41 528.1C688.16 536.22 684.22 543.76 680.52 550.85C677.51 556.83 678.81 557.54 682.94 552.75C685.74 549.52 690.28 542.69 693.99 536.02C699.82 524.24 704.79 512.03 709.69 500.3C711.69 494.01 712.36 490.24 711.95 488.86Z" />
		<path id="Path 4" fill-rule="evenodd" class="shp0" d="M31.96 352.6C32.06 342.41 31.11 333.32 31.73 324.62C32.69 312.21 33.64 295.53 38.6 278.59C39.24 276.37 40.01 273.72 40.72 271.28C41.71 267.92 43.22 264.6 43.28 265.77C43.34 267.02 43.1 269.17 43.27 270.1C44.04 272.95 46.97 263.09 50.88 253.19C53.88 244.69 56.93 236.05 59.92 227.58C63.62 219.39 67.26 211.36 70.68 203.79C87.49 168.09 112.62 133.18 142.45 104.16C150.52 96.81 158.63 88.58 168.5 82.32C185.9 69.43 201.92 59.96 216.75 50.1C224.99 45.42 234.86 40.58 244.18 35.8C252.93 31.34 262.83 28.67 272.51 25.7L282.93 22.81C294.92 20.54 305.09 17.89 314.04 14.96C318.6 13.36 323.13 12.7 327.88 11.49C334.44 10.04 341.64 8.71 349.36 7.51C357.09 6.48 365.43 6.58 374.15 6.33L381.8 6.31C392.26 5.97 402.4 7.82 412.34 8.18C422.32 8.53 432 9.71 441.58 11.16C447.26 11.89 453.65 12.87 459.83 13.96C478.38 18.78 496.9 23.33 514.11 30.28C514.8 30.53 517.67 32.15 517.43 32.27C516.94 32.51 515.55 32.42 513.63 32.02C505.4 30.37 494.63 26.79 480.9 24.08C450.02 15.94 419.89 14.57 386.35 14.16C373.42 15.12 360.75 15.37 348.51 17.29C336.34 19.71 324.24 21.15 312.69 24.53C278.52 32.84 244.16 47.84 213.4 66.6C184.28 83.87 158.12 106.78 135.64 132.03C132.03 136.29 128.61 140.33 125.14 144.42C120.98 149.32 117.85 154.63 113.93 160.04C104.23 172.52 96.06 187.16 88.68 200.25C85.1 206.91 82.42 213.92 79.25 220.76C76.15 227.65 72.98 234.58 70.75 242.21C67.8 251.86 64.18 260.57 62.09 270.18C59.87 280.89 57.08 291.15 55.17 302.5C50.6 329.59 50.13 352.62 51.96 375.82C52.76 383.87 53.55 391.95 54.36 400.16C56.9 413.84 57.3 414.27 58.06 406.19L58.19 404.31C58.57 401.04 59.34 401.67 60.37 406.04L61.58 411.26C64.12 420.7 65.5 430.72 68.9 439.27C71.4 446.17 73.19 452.27 75.19 463.09C80.4 480.87 84.53 494.06 91.12 502.75C94.56 507.8 97.68 512.08 102.18 520.46C103.54 523.02 105.64 525.6 106.45 526.42C111.2 530.38 117.68 541.63 125.81 551.48C130.72 557.38 135.2 562.31 139.55 567.08C142.42 570.57 146.07 573.75 149.54 578.43C154.93 584.96 159.84 592.45 166.73 598.61C170.86 602.65 172.83 605.66 170.85 604.8C169.09 604.05 167.05 603.01 164.7 601.63C163.31 600.81 161.3 599.36 159.25 597.78C148.69 588.18 140.45 581.19 137.53 581.61C136.95 581.68 134.45 579.82 132.16 577.52C122.67 566.4 111.69 555.66 103.27 542.95C99.23 536.93 93.8 530.43 89.91 521.72C83.73 508.65 77.38 498.2 73.05 486.51C68.57 476.19 64.03 464.31 61.19 454.85C59.02 448.07 55.9 439.61 54.4 430.44C53.06 422.48 51.69 414.37 50.39 406.71C48.32 393.6 48.18 379.82 46.74 367.18C46.65 359.99 46.88 352.33 47.06 344.51C47.11 336.66 47.51 328.67 48.81 320.85C49.84 312.95 50.87 305.06 51.88 297.34C53.53 289.72 55.15 282.29 56.69 275.19C57.83 270.24 58.6 264.6 60.77 259.22C66 244.71 69.76 231.18 75.49 219.03C78.32 212.67 81.46 204.77 85.56 197.72C91.78 187.33 96.78 177.96 100.93 170.19C103.69 165.66 105.02 162.74 104.26 161.84C103.22 162.7 101.86 163.48 99.55 165.78C93.02 172.29 86.61 182.34 79.45 193.59C74.87 200.98 71.47 209.3 68.07 216.43C61.82 228.87 57.75 242.74 52.61 256.49C46.2 277.63 41.52 298.39 40.28 317.18C38.64 328.72 38.27 342.15 37.8 355.13C37.62 360.51 36.32 368.13 35.91 369.09C33.94 371.9 31.87 366.71 31.96 352.6ZM62.45 439.01C62.58 440.39 63.09 443.33 63.53 445.01C66.38 454.86 68.31 464.41 71.9 471.07C72.2 471.7 72.56 472.11 72.52 471.72C72.36 470.72 72.12 469.21 71.88 467.72C69.16 457.11 66.92 447.64 64.11 439.65C63.6 438.12 63.05 437.11 62.75 436.98C62.47 436.85 62.32 437.64 62.45 439.01ZM500.85 59.49C507.99 60.79 513.79 61.84 519.65 62.9C529.06 65.28 539.38 68.14 545.73 68.66C548.04 68.68 553.37 71.32 559.82 75.47C567.99 80.81 575.63 84.48 582.16 88.99C593.51 96.62 606.19 104.87 618.19 116.77C629.16 126.16 637.71 135.93 646.22 144.31C654.4 151.82 660.83 161.63 668.74 171.56C696.85 210.94 715.91 254.12 725.79 299.4C727.25 308.18 728.73 317.06 730.24 326.17C731.8 335.29 731.49 344.82 732 354.61C732.1 357.87 731.98 361.68 731.84 364.75C731.71 367.64 730.87 366.89 730.26 363.94C728.56 355.59 726.94 346.23 725.58 333.92C724.83 329.4 723.91 323.9 723 318.42C720.88 297.53 715.01 281.66 710.13 265.6C707.02 258.1 704.04 250.87 700.84 242.22C699.41 237.93 697.56 233.78 695.58 230.43C686.43 212.51 675.57 192.59 662.1 173.26C656.7 165.91 651.71 159.2 646.82 153.33C641.49 147.82 636.5 142.96 631.81 138.65C624.83 131.68 616.89 126.28 606.75 117.35C602.14 113.18 598.12 110.41 593.49 107.63C583.55 101.52 574.64 94.66 563.73 89.61C556.94 86.04 551.64 83.55 548.33 82.69C545.19 81.62 538.9 78.91 530.96 74.74C524.94 71.58 521.64 70.38 520.58 70.77C518.35 71.33 509.11 68.22 496.21 63.46C490.9 61.59 485.77 59.1 481.54 58.23C478.11 57.09 476.02 56.4 473.96 55.72C470.51 54.56 468.1 52.86 470.28 53.13C471.68 53.31 472.69 53.29 474.46 53.66C485.65 55.62 493.78 58.04 500.85 59.49ZM231.3 638.56C238.96 643.45 247.37 646.75 256.11 651.4C252.95 651.53 247.16 650.05 240.4 648C233.66 645.91 226.55 642.18 219.86 639.55C216.97 638.28 212.02 635.75 207.9 633.27C195.18 624.77 189.07 619.35 188.93 616.44C188.73 613.04 188.53 609.77 188.3 605.92C188.03 602.19 173.83 589.29 167.32 583.32C163.57 579.87 160.34 576.89 156.6 573.44C155.74 572.63 153.22 569.62 152.71 568.78C150.51 565.31 148.89 562.15 147.3 558.48C144.73 553.07 139.93 545.94 134.29 539.25C132.16 536.24 130.28 533.57 128.12 530.52C125.91 527.26 123.67 523.39 121.8 519.6C118.48 513.54 116.44 507.07 113.95 500.54C112.47 496.7 110.52 492.64 108.64 489.25C107.8 487.64 106.74 486.09 106.19 484.83C102.29 476.58 96.97 464.7 93.74 452.14C91.54 443.27 89.92 435.26 89 427.73C88.62 415.99 90.15 413.65 92.81 422.07C93.05 422.81 93.53 426.68 93.58 427.67C93.82 429.92 93.79 431.53 93.75 433C93.63 434.42 93.55 435.38 93.42 436.82C93.37 439.11 95.04 447.22 96.3 450.91C97.45 453.98 98.31 457.04 99.77 459.74C101.78 463.81 103.66 466.94 105.73 471.77C107.8 476.57 109.64 480.53 111.34 483.84C113.38 487 115.25 489.52 116.96 491.59C117.69 492.48 119.99 497.56 120.61 499.58L121.41 502.01C123.34 508.11 122.41 510.24 127.66 519.16C131.86 526.58 134.55 529.02 137.95 533.89C140.68 537.58 144.39 542.37 146.28 546.06C148.11 549.55 149.81 552.8 151.64 556.27C152.46 558.07 155.95 562.21 156.91 562.54C158.46 563.27 159.84 563.91 161.41 564.64C163.21 565.56 167.17 569.7 170.35 574.04C175.09 581.15 181.06 586.96 186.7 593.43C189.78 596.77 194.48 600.96 196.65 601.77C197.44 602.06 197.91 602.06 198.43 602.12C199.91 602.29 204.05 604.92 205.52 606.26C207.48 608.05 209.74 610.12 210.68 611.28C212.88 613.91 214.87 616.63 219.35 620.49C228.77 627.59 227.56 628.41 224.44 628.17C222.1 627.85 216.01 625.54 211.86 623.14C210 622.19 210.81 623.82 213.24 626.19C218.25 630.39 224.39 634.54 231.3 638.56ZM256.49 651.45L257.22 651.93L256.11 651.4C256.2 651.41 256.39 651.43 256.49 651.45ZM256.46 651.43L256.86 651.61L257.22 651.93L256.46 651.43ZM282.16 661.31C274.43 659.14 265.59 656.34 256.86 651.61C253.24 648.38 249.75 645.25 245.96 641.87C240.87 637.48 241.38 635.84 245.1 635.89C246.4 635.89 249.37 636.89 253.23 638.74C259.41 641.69 265.51 644.88 271.79 647.7L291.23 654.91C295.99 656.93 301.24 658.86 306.16 660.25C312.01 662.25 317.69 664.19 323.31 666.11C328.15 668.1 333.42 668.58 338.78 669.52C346.38 670.65 351.06 671.95 354.11 673.38C357.58 674.99 357.54 675.98 352.13 675.85C347.2 675.61 341.3 675.31 335.65 675.03C327.01 674.96 317.7 672.6 306.06 668.88C297.31 666.1 289.25 663.55 282.16 661.31ZM87.6 540.64C91.73 549.07 91 551.63 85.83 544.21C78.05 533.85 72.28 521.55 65.61 509.9C65.2 509.05 64.54 507.69 64.04 506.65C63.02 504.52 62.21 501.77 61.82 500.19C61.45 498.59 61.43 497.54 61.63 497.35C61.85 497.15 62.37 497.69 63.01 498.91C64.6 502.2 66.5 504.98 68.94 509.37C74.69 519.9 79.45 528.83 84.19 534.9C84.72 535.54 86.43 538.67 87.6 540.64ZM49.84 450.24C50.29 451.96 50.87 455.26 50.97 456.52C51.42 462.15 50.85 463.84 49.27 461.43C48.87 460.83 48.21 459.28 47.66 457.41C44.5 446.73 41.26 435.94 39.89 423.58C39.47 420.58 39.4 415.78 39.86 416.48C40.7 417.78 41.52 418.31 42.47 421.37C44.5 428.06 46.33 438.6 49.84 450.24ZM464.68 38.94C462.14 38.39 457.96 36.69 455.59 36.09C447.69 33.87 449.87 32.55 459.23 34.15L484.89 40.35C490.87 41.46 498.67 45.94 499.02 46.82C498.41 46.85 498.43 47.24 497.1 46.88C488.31 44 476.51 42.17 464.68 38.94ZM58.4 330.87C58.11 339.16 58.41 347.78 58.4 356.38C58.33 358.17 58.22 360.71 58.08 363.91C57.6 365.91 57.52 369.26 57.25 370.61C56.7 373.25 55.66 371.08 55.32 366.32C55.61 354.92 55.92 343.3 56.21 331.58C56.4 330.13 57.16 326.94 57.56 325.74C57.94 324.59 58.4 324.12 58.47 324.87C58.59 326.26 58.62 328.28 58.4 330.87ZM413.08 29.23C410.11 29.56 405.79 29.7 401.37 29.76C395.81 29.8 386.69 28.53 385.46 27.96C385.09 27.69 384.94 27.42 384.59 27.05C385.07 26.74 385.47 26.31 386.41 25.9C388.5 24.7 396.12 25.04 402.43 25.74C412.26 26.94 417.87 28.71 413.08 29.23ZM385.04 54.94C386.54 54.81 389 54.52 391.02 54.72C396.35 55.17 401.1 56.01 403.38 56.95C405.53 57.84 405.48 58.53 401.44 58.76C399.33 58.88 396.39 58.85 393.55 58.78C389.72 58.44 384.09 58.52 382.05 58.08C377.34 57.14 378.41 55.81 385.04 54.94ZM90.54 352.82C90.94 350.57 91.48 349.69 91.88 348.43C92.14 349.54 92.41 349.94 92.5 351.23C92.76 354.84 92.63 359.65 92.3 364.95C92.14 369.08 92.28 374.33 91.73 375.63C91.38 376.62 90.91 377.16 90.54 376.21C89.85 374.48 89.3 370.75 89.06 366.39C89.27 362.02 89.78 357.03 90.54 352.82ZM648.61 179.3C646.94 177.02 645.58 174.14 645.71 173.66C646.15 172.01 648.8 173.79 653.2 178.28C653.63 178.73 654.62 179.93 654.98 180.49C656.03 182.17 657.41 184.35 657.72 185.15C658.21 186.62 658.01 187.23 658.11 188.28C657.38 188.05 656.7 187.97 655.82 187.5C655.42 187.25 654.72 186.87 653.73 185.72C652.21 183.97 650.36 181.67 648.61 179.3ZM324.14 30.31C319.79 30.28 319.08 29.79 319.52 28.98C319.89 28.27 324.19 27.12 327.65 26.8C330.85 26.53 334.26 26.32 336.44 26.34C340.48 26.38 342.63 26.77 341.95 27.49C341.75 28.14 337.25 29.31 333.16 29.73C329.98 30.06 326.37 30.31 324.14 30.31ZM88.63 215.42C85.75 222.78 82.43 230.27 79.74 238C79.5 238.56 78.88 240.02 78.44 241.06C78.05 241.8 77.5 243 77.31 243.18C76.85 243.61 76.25 244.3 76.28 243.6C76.24 239.02 79.57 230.29 85.33 219.21C86.1 217.68 87.62 215.29 88.17 214.65C88.74 213.99 89.08 214.29 88.63 215.42ZM419.82 65.2C424.95 66.08 429.32 67.71 428.44 68.23C427.54 68.9 422.8 68.15 417.56 67.66C413.83 67.35 410.64 66.51 410.88 65.91C411.21 65.1 414.92 64.81 419.82 65.2ZM95.93 319.99C95.55 319.58 95.74 316.45 96.32 313.64C97.17 309.53 98.13 307.05 98.67 307.64C99.04 308.06 98.86 311.08 98.27 314.06C97.47 318.12 96.49 320.6 95.93 319.99ZM266 53.49C264.92 53.22 268.13 51.58 272.48 50.19C276.11 49.02 278.23 48.63 279.16 48.81C279.9 49.16 276.79 50.78 272.58 52.12C268.96 53.29 266.77 53.69 266 53.49ZM167.52 107.62C166.2 108.59 164.87 109.34 164.63 109.26C163.95 109.04 166.8 106 170.23 103.17C172.72 101.17 175.02 100.3 174.7 100.96C174.19 101.89 170.46 105.34 167.52 107.62ZM99.43 290.8C98.78 291.58 99.24 288.44 100.2 285.48C100.68 283.99 101.26 282.96 101.79 281.72C102.32 281.47 101.97 284.2 101.01 287.17C100.52 288.66 99.76 290.42 99.43 290.8ZM109.07 502.76C110.42 505.52 111.52 508.77 111.36 509.44C111.19 510.11 109.95 508.37 108.59 505.59C107.25 502.81 106.14 499.58 106.31 498.92C106.48 498.25 107.7 499.94 109.07 502.76ZM80.03 361.01C80.05 362.49 80.2 363.89 80.08 365.48C79.96 368.36 79.67 370.36 79.12 368.92C78.9 368.31 78.59 366.18 78.79 364.57C78.98 361.67 79.62 360.01 80.03 361.01ZM246.94 90.34C245.39 91 243.2 91.71 242.58 91.76C241.35 91.87 243.87 90.22 246.86 88.95C248.4 88.3 249.86 87.95 251.35 87.47C252.05 87.64 249.99 89.05 246.94 90.34ZM302.2 60.42C299.17 61.2 295.87 61.57 295.7 61.16C295.55 60.73 297.05 60.07 300.49 59.19C303.52 58.41 306.77 58.06 307.01 58.4C307.09 58.89 305.58 59.55 302.2 60.42ZM222.98 659.46C225.14 660.59 228.31 663.25 227.26 663.14C226.83 663.09 224.6 661.83 223.19 661.12L220.1 658.42C221.03 658.74 221.58 658.73 222.98 659.46ZM224.23 105.01C222.17 106.49 217.79 108.5 218.16 107.8C218.36 107.44 219.94 106.22 221.28 105.43C222.53 104.69 224.28 104.01 225.81 103.31C225.31 103.86 225.32 104.23 224.23 105.01ZM92.02 280.23C91.65 280.86 91.22 281.67 90.92 281.99L91.15 280.31C91.66 279.03 92.13 277.85 92.61 276.63L92.02 280.23ZM154.03 190.88C152.64 192.56 151.65 193.49 151.97 192.65C152.16 192.17 153.36 190.56 154.19 189.4C154.19 189.4 155.08 188.56 155.29 188.47C155.87 188.23 155.38 189.13 154.03 190.88ZM704.92 265.33C705.35 266.78 705.57 268.04 705.66 269.46C705.36 269.63 704.26 266.84 703.27 263.58C703.02 262.72 702.81 261.74 702.77 261.32C702.66 259.93 703.98 262.32 704.92 265.33ZM230.88 112.8L230.67 113.28L229.06 113.93L230.88 112.8Z" />
		<path id="Path 5" fill-rule="evenodd" class="shp0" d="M658.09 486.15C657.03 488.52 655.11 492.81 653.53 496.35L653.54 496.33L653.47 496.47C653.36 496.71 653.27 496.93 653.16 497.16L653.2 497.05C636.41 533.08 610.45 567.8 577.81 594.88C556.79 612.21 532.55 626.65 506.94 637.9C501.86 639.77 496.77 641.65 491.69 643.53C486.57 645.34 481.56 647.46 476.26 648.6C471.03 649.92 465.82 651.24 460.64 652.55C458.05 653.15 455.48 653.89 452.89 654.37C450.28 654.75 447.67 655.12 445.08 655.49C409.46 661.48 372.86 660.78 337.51 653.42C340.65 654.24 343.67 655.06 346.43 655.89C355 658.73 361.82 660.97 367.12 662.73C370.53 664.01 373.65 665.31 376.49 666.6C378.49 667.5 373.96 668.22 367.68 667.95C362.54 667.79 356.96 667.6 351.99 666.37C320.36 661.73 290.31 650.23 262.48 635.89C256.24 632.13 249.67 629.3 243.92 625C234.73 618.21 224.87 612.65 216.35 605.08L202.93 594.63L190.11 583.23C185.01 578.94 179.27 573.47 174.9 567.73C170.98 563.02 167.23 558.97 163.5 555.04C159.92 551.02 156.88 546.7 153.5 542.28C150.6 538.11 147.36 534.03 144.57 529.62C141.96 525.09 139.34 520.54 136.76 516.07C134.61 512.67 132.63 509.54 130.46 506.13C126.71 498.42 123 490.8 119.23 483.06C115.9 475.14 113.38 466.71 110.59 458.05C108.26 451.13 107.16 443.94 105.03 437.54C103.87 433.48 102.5 429.17 101.45 424.96C100.69 420.69 99.91 416.6 99.09 413.14C97.83 407.78 96.9 402.94 96.29 398.14C95.91 393.3 96.37 388.44 96.87 383.17C97.68 377.47 96.73 369.5 96.98 362.49C96.99 358.79 97 355.39 97 351.76C97.02 347.08 97.27 341.98 97.83 336.71C101.23 322.4 102.5 308.23 106.83 294.42C110.47 278.63 116.77 263.22 123.2 248.27C125.45 243.75 127.72 239.06 129.56 234.87C132.28 227.74 136.65 221.18 140.73 214.29C142.81 210.87 144.9 207.4 147.02 203.93L154.47 194.13C159.77 187.21 164.78 180.13 170.89 174.05C176.85 167.88 181.99 160.99 188.49 155.56C193.97 150.71 199.37 145.38 205.19 140.51C211.25 135.96 217.33 131.4 223.23 126.97C232.72 120.29 243.39 114.13 252.3 108.36C255.15 106.8 259.28 104.92 262.93 103.19C283.03 93.11 304.86 86.89 325.38 81.39C330.73 79.53 337.33 79.29 343.27 78.25C348.76 77.41 354.22 76.57 359.64 75.74C365.13 75.44 370.57 75.16 375.94 74.87C386.69 73.75 397.16 74.12 407.22 74.28C420.4 73.6 435.56 76.76 450.34 78.94C481.48 85.58 506.64 94.71 531.13 105.25C535.77 107.72 539.29 109.17 540.63 109.03C544.14 108.64 550.27 110.11 555.02 110.58C558.25 110.9 559.63 109.9 561.25 109.11C563.25 108.09 565.41 107.57 571.56 110.34C572.28 110.67 574.43 112.12 575.7 113.16C576.99 114.22 578.81 116.01 578.98 116.41C579.43 117.48 579.36 118.16 579.06 118.65C578.54 119.51 577.69 120.1 576.99 120.82C576.06 121.76 577.12 124.2 581.12 128.79C586.26 134.91 588.56 139.99 588.04 141.74C587.79 142.53 586.4 142.15 583.07 139.59C566.05 127.75 551.5 120.32 537.5 115.35C528.75 111.38 518.17 108.59 502.99 101.54C478.4 93.54 448.7 85.43 418.92 82.78C403.03 82.37 387.14 81.36 371.99 83.45C359.46 83.87 346.83 87.19 333.82 89.06C327.41 90.49 321.09 92.53 314.68 94.17L305.09 96.74L295.84 100.33C269.12 109.58 244.17 123.92 221.81 141.13C219.56 142.85 217.35 144.54 215.05 146.3C206.03 152.97 198.54 161.09 190.4 168.28C183.48 176.68 175.59 184.15 169.32 193.08C163.27 201.51 156.35 209.62 151.31 219.03L143 232.7L136.13 247.1C134.16 251.5 131.45 255.91 130.03 260.29C129.82 260.84 129.64 261.44 129.43 262C130.05 260.43 130.62 258.86 131.31 257.32C134.02 251.74 136.75 246.09 139.59 240.22C142 234.72 144.99 230.1 147.77 225.7C150.56 221.33 153.19 217.2 155.77 213.15C160.34 206.42 165.29 200.47 170.75 192.88C181.89 178.85 194.06 166.13 206.59 155.74C209.29 153.48 211.76 150.97 214.67 148.86C217.55 146.72 220.51 144.53 223.61 142.22L234.97 133.81L247.05 126.47L259.15 119.19L271.8 112.95C282.99 107 295.05 103.08 306.91 98.7C312.83 96.48 319.09 95.33 325.17 93.62C331.31 92.14 337.36 90.2 343.65 89.49C347.41 88.92 351.21 88.34 354.93 87.77C366.56 85.46 378.36 85.55 390.03 84.83C395.87 84.31 401.7 84.99 407.53 85.2L424.97 86.19C448 89.38 470.95 93.76 492.72 102.25C499.02 104.71 504.79 106.47 509.59 108.95C514.09 111.28 518.09 113.35 521.74 115.23L531.14 119.58C534.18 121.21 537.14 123.04 540.15 124.83C563.42 137.77 583.71 155.4 600.49 172.8C603.4 176.13 606.28 179.42 609.21 182.78C612.08 186.18 615.31 189.4 617.98 193.35C621.39 198.06 624.35 202.14 626.97 205.76C629.56 209.4 631.85 212.54 633.45 215.7C636.8 221.89 639.46 226.8 642.2 231.86C644.11 235.28 645.09 237.79 644.82 237.96C644.3 238.33 644.35 239.85 645.16 242.96C645.39 244.21 643.51 240.04 640.75 235.62C639.2 233.15 637.24 230.03 635.44 227.17C625.95 211.47 622.17 208.34 622.98 210.4L622.94 210.34C626.01 214.35 628.46 218.64 631.01 223.12C632.6 225.84 634.35 228.82 636.09 231.78C640.81 238.89 644.01 246.85 647.83 254.48C651.83 262.05 654.5 270.18 657.44 278.19C658.9 282.19 660.65 286.35 660.59 285.75C660.41 283.74 658.64 277.58 654.51 265.65C649.66 253.42 649.38 253.18 651.53 256.34C651.88 256.9 652.87 258.82 653.66 260.36C653.81 260.59 654.59 262.36 654.76 263.1C657.58 272.23 660.6 280.75 663.19 290.36C665.87 302.73 665.52 303.53 662.87 295.5C662.39 294.01 661.83 292.3 661.3 290.68L664.57 303.55L664.55 303.46L664.7 304.05L664.8 304.66C665.43 307.69 666.14 311.16 666.91 314.9C667.35 318.7 667.84 322.77 668.35 326.96C669.15 333.8 669.56 337.35 670.21 341.74C670.66 346.16 670.85 351.46 671.59 361.74C671.68 363.65 671.89 367.77 671.92 368.36C671.89 370.07 671.82 371.4 671.68 371.17C671.55 370.94 671.32 369.1 671.12 367.31C670.87 364.88 670.54 361.7 670.27 359.09C669.6 352.92 669.16 351.65 668.89 354.71C668.6 357.95 668.4 358.91 668.1 356.06C667.95 354.64 667.78 352.26 667.56 348.72C667.42 346.96 667.41 344.89 667.13 342.54C666.77 340.19 666.36 337.53 665.89 334.55C664.98 328.63 664.06 322.69 663.14 316.75C661.77 310.91 660.19 305.11 658.71 299.32C656.44 288.7 651.9 278.94 648.36 268.72C647.07 264.72 645 261.01 643.23 257.18L637.73 245.74C636.04 241.86 633.82 238.26 631.6 234.66L625.02 223.84C621.45 217.43 616.98 212.53 613.57 208.05C611.99 206.07 610.2 203.82 608.37 201.51L605.6 198.01C604.57 196.93 603.55 195.87 602.55 194.83C602.59 194.86 603.02 195.3 603.02 195.3C599.94 191.85 596.45 187.96 593.85 185.04C591.78 182.69 589.82 180.4 587.81 178.28C585.66 176.32 583.57 174.42 581.54 172.57C577.41 168.96 573.49 165.53 569.63 162.15C564.28 158.05 558.98 154.57 555.79 152.48C553.85 151.26 555.77 153.09 559.57 156.04C560.41 156.7 561.15 157.27 562.02 157.95C564.09 159.57 566.23 161.08 568.21 162.75L573.92 168.04C577.7 171.56 581.45 175.05 585.2 178.52C588.87 182.07 592.06 186.09 595.5 189.84C598.8 193.72 602.46 197.31 605.49 201.46C622.59 222.95 635.6 246.95 645.57 272.13C647.56 277.88 649.68 283.97 651.88 290.35C653.59 296.88 655.37 303.71 657.21 310.79C657.5 311.9 657.79 313.08 658.08 314.21C660.57 327.05 660.94 334.55 660.47 334.18C660.47 334.18 660.46 334.14 660.44 334.13C662.12 346.25 663.06 358.61 663.06 371.2C663.06 374.39 662.92 377.55 662.82 380.71C662.82 381.09 662.82 381.54 662.8 382.13C662.65 387.19 662.49 392.23 662.31 397.77C661.03 407.47 659.76 416.99 658.18 426.56C657.02 431.27 655.84 436.01 654.66 440.82C653.35 445.59 652.5 450.59 650.52 455.34C649.01 459.62 647.53 463.85 646.04 468.07C644.87 471.41 644.33 473.46 645.19 471.34C647.25 466.21 649.43 460.76 651.37 455.93C651.9 454.57 652.47 453.11 653.08 451.58C653.51 450 653.95 448.35 654.41 446.68C655.3 443.32 656.21 439.89 657.05 436.73C657.72 434.26 657.81 434.29 657.51 435.83C657.14 437.71 656.6 440.26 656.54 441.01C656.46 441.89 657.46 438.34 658.26 435.52C660.83 426.49 660.46 429.32 659.04 435.65C658.83 436.56 658.57 437.69 658.36 438.6C656.52 446.7 656.5 447.48 658.16 441.94C659.48 437.5 660.82 433.03 662.14 428.59C663.5 424.15 664.02 419.57 664.98 415.21C665.65 412.09 666.09 410.01 666.58 407.72C667.13 405.23 667.13 407.58 666.55 411.97C666.12 415.08 665.67 418.45 665.21 421.78C664.66 427.58 662.99 432.64 662.6 435.55C662.1 438.24 661.4 441.57 660.46 445.68C659.97 447.73 659.44 449.99 658.85 452.45C658.16 454.88 657.14 457.44 656.16 460.26C652.57 470.07 649.89 479.07 645.74 487.21C641.94 495.48 638.54 503.72 633.43 511.74C632.46 513.4 631.59 515.03 631.45 515.42C630.57 517.78 629.7 520.15 629.26 521.8C629.06 522.58 630.95 519.87 633.76 515.54C635.85 512.26 638.15 508.67 640.37 505.19C644.34 497.92 648.02 490.41 651.83 482.99C655.46 475.48 658.1 467.56 661.24 459.93C662.03 457.83 662.92 455.85 663.55 453.87C664.14 451.87 664.7 449.94 665.24 448.09C666.35 444.36 667.39 440.91 668.35 437.64C669.35 434.37 670.3 431.3 671.19 428.35C671.84 425.35 672.46 422.46 673.07 419.65C673.62 417.04 674.01 415.62 674.45 413.84C674.88 412.11 674.88 413.65 674.45 417.13C673.44 429.32 669.83 441.28 667.32 453.1C665.01 461.56 663.72 464.99 664.92 463.15C665.13 462.81 666.05 460.43 666.74 458.68C666.96 458.08 667.69 456.19 667.83 455.43C668.41 452.81 668.88 450.68 669.47 447.95C670.84 441.79 672.83 434.23 674.49 428.17C675.24 424.11 675.7 422.22 675.7 423.51C675.66 424.64 675.62 426.62 675.16 429.44C674.56 432.25 673.7 435.93 672.5 440.58C671.19 445.76 669.97 450.53 668.84 454.95C667.56 459.32 666.01 463.23 664.8 466.94C662.13 474.25 660.51 480.73 658.09 486.15ZM664.55 303.45L664.56 303.49L664.54 303.4L664.55 303.45ZM664.55 303.45L664.55 303.46L664.55 303.45L664.55 303.45ZM654.84 491.67C654.42 492.39 653.62 493.89 652.78 495.52C651.72 497.58 649.28 502.81 648.9 503.86C648.53 504.9 648.02 506.31 648.64 505.24C649.78 503.17 651.69 499.68 653.32 496.71C654.04 494.78 654.8 492.7 655.36 491.2C655.56 490.59 655.29 490.94 654.84 491.67ZM626.67 522.18C626.78 521.99 626.15 522.93 625.85 523.34C625.12 524.67 624.31 526.06 623.53 527.12C623.41 527.28 624.13 526.4 624.48 525.99C625.27 524.72 626.04 523.3 626.67 522.18ZM619.27 549.14C619.15 549.28 617.73 551.16 617.5 551.47C616.7 552.65 616.15 553.48 615.4 554.36C616.16 553.66 616.85 552.89 617.5 552.08C618.43 550.76 619.82 548.79 620.16 548.3C620.46 547.79 619.76 548.58 619.27 549.14ZM613.02 531.45C613.1 531.23 611.82 532.81 610.93 533.89C610.61 534.32 609.55 535.71 608.93 536.55C605.24 541.66 603.11 544.61 602.48 545.5C602.24 545.98 605.25 542.91 607.04 540.23C610.94 534.92 612.74 532.21 613.02 531.45ZM612.08 544.41C611.57 544.45 611.02 545.68 606.48 550.34C602.74 554.34 597.99 559.89 597.33 561.13C596.9 561.91 597.29 561.82 598.41 560.9C598.9 560.5 602.09 557.13 604.12 554.92C606.14 552.69 608.83 549.65 610.16 548.01C611.43 546.16 611.61 545.68 612.07 544.92C612.08 544.69 612.22 544.36 612.08 544.41ZM573.43 584.52C572.61 585.33 571.3 586.47 570.15 587.4C570.15 587.45 569.76 587.82 570.23 587.49C571.73 586.54 573.3 585.2 574.17 584.19C574.9 583.41 578.65 579.85 573.43 584.52ZM541.71 140.39C541.39 140.14 541.27 140.02 540.69 139.65C538.96 138.54 537.43 137.64 536.85 137.4C536.68 137.33 537.18 137.69 537.75 138.06C539.47 139.16 540.88 139.98 541.71 140.39ZM477.84 116.6C476.96 116.27 476.08 115.95 475.19 115.61C473.79 115.23 472.38 114.85 470.97 114.48C470.63 114.39 470.28 114.3 469.95 114.21C472.59 114.97 475.23 115.76 477.84 116.6ZM456.72 110.75C455.74 110.49 454.75 110.23 453.78 109.98C450.12 108.87 446.32 108.35 442.53 107.79L440.7 107.51C446.1 108.43 451.44 109.52 456.72 110.75ZM431.85 106.15L431.16 106.04C425.29 104.89 419.34 104.57 413.39 104.28C419.61 104.7 425.76 105.32 431.85 106.15ZM320.81 111.31C318.5 111.91 316.19 112.46 314.52 113.04C312.88 113.7 311.81 114.17 311.86 114.25C311.98 114.42 315.31 113.22 319.84 112.22C323.1 111.38 326.34 110.44 327 110.13C327.94 109.69 325.3 110.2 320.81 111.31ZM322.2 107.14L323.32 106.92L324.36 106.58L322.2 107.14ZM288.87 116.31C288.21 116.54 287.57 116.82 286.96 117.15C287.51 116.89 288.06 116.65 288.64 116.47L288.87 116.31ZM268.26 132.47C268.4 132.4 267.04 132.95 266.22 133.39C258.07 138.31 250.29 142.88 242.8 147.93C240.53 149.66 240.39 149.82 242.53 148.26C245.1 146.28 248.16 144.79 251.24 142.86C256.05 139.93 261.05 136.87 265.97 133.88C266.95 133.28 267.77 132.78 268.26 132.47ZM189.31 196.04L187.44 198.05L186.97 198.73C187.58 198.06 188.37 197.21 188.78 196.77C189.16 196.33 189.15 196.27 189.31 196.04ZM128.42 353.7L128.25 356.09L128.29 356.13C128.32 355.63 128.37 355.15 128.4 354.65L128.42 353.7ZM580.88 165.11C581.45 165.63 582.66 166.75 583.26 167.3C585.73 169.47 588.16 171.6 590.52 173.67C592.91 175.72 594.86 178.1 596.95 180.18C601.07 184.44 604.89 188.39 608.31 191.93C609.62 193.25 609.53 192.93 609.97 193.26C606.95 189.99 603.69 186.46 601.06 183.62C596.92 179.45 593.52 175.27 589.76 172.28C586.09 169.23 582.87 166.55 580.14 164.29C579.86 164.06 580.35 164.6 580.88 165.11ZM644.49 251.21C645.11 252.71 646.15 254.89 647.1 256.67C650.42 262.29 652.87 268.73 656.62 278.94C659.61 287.1 660.62 288.97 660.86 289.14C658.06 281.61 655.27 274.08 652.44 266.48C649.4 258.7 646.95 255.21 645.58 252.59C645.09 251.77 644.72 251.19 644.42 250.78C644.28 250.58 644.26 250.67 644.49 251.21ZM660.18 294.64C659.95 293.62 659.05 289.77 658.74 288.9C657.8 286.56 656.96 284.57 656.46 283.54C656.27 283.15 657.1 285.68 657.46 286.85C658.98 290.76 659.4 293.55 660 294.92C660.27 295.72 660.39 295.71 660.18 294.64ZM648.49 264.45L646.92 260.77C646.51 260.07 645.97 259.16 645.74 258.79C645.65 258.66 646.13 259.77 646.49 260.55C647.62 262.98 648.33 264.31 648.49 264.45ZM662.27 311.04L663.01 313.85L662.63 312.07L662.27 311.04ZM640.31 496.16C640.94 495.02 641.47 494.03 642.21 492.67C642.45 492.16 643.24 490.52 643.62 489.72C646.42 483.57 647.59 480.63 646.95 481.31C646.8 481.48 645.81 483.33 645.02 484.91C644.28 486.49 642.97 489.29 642.4 490.49C640.69 494.42 640.15 495.99 640.31 496.16ZM656.57 481.43L655.46 483.6C655.23 484.14 654.78 485.15 654.84 485.09C654.88 485.02 655.51 483.79 655.88 483.07L656.57 481.43ZM663.87 395.49C664.19 390.91 664.45 388.83 664.64 388.85C664.8 388.87 664.86 390.71 664.82 393.69C664.78 395.18 664.73 396.94 664.68 398.91C664.39 400.85 664.08 402.98 663.76 405.22C663.43 406.95 662.82 410.24 662.53 411.76C661.87 414.77 661.79 413.84 662.1 410.51C662.26 407.17 663.66 400.55 663.87 395.49ZM669.81 380.71C670.04 379.91 670.08 382.02 670.02 385.7C669.99 386.47 669.93 387.87 669.89 388.89C669.82 389.88 669.7 391.45 669.69 391.6C669.39 392.85 669.3 391 669.44 385.55C669.47 384.85 669.56 383.43 669.61 382.44C669.68 381.79 669.76 380.87 669.81 380.71ZM678.28 390.53L678.34 388.17L678.45 388.14L678.28 390.53ZM632.39 224.28C632.54 224.54 632.7 224.8 632.85 225.05C632.81 225 632.79 224.97 632.68 224.83L632.39 224.28ZM632.85 225.05C633.02 225.25 632.6 224.56 631.74 223.23L631.62 223.03L631.87 223.35C632 223.34 632.72 224.47 633.81 226.45C633.99 226.76 633.65 226.34 633.3 225.79C633.18 225.6 633.02 225.33 632.85 225.05Z" />
	</g>
</svg>